<svg height="354pt" viewBox="0 0 354.00032 354" width="354pt" xmlns="http://www.w3.org/2000/svg"><path d="m307 177c0 71.796875-58.203125 130-130 130s-130-58.203125-130-130 58.203125-130 130-130 130 58.203125 130 130zm0 0" fill="#e48e66"/><g fill="#63316d"><path d="m0 177c0 97.601562 79.398438 177 177 177s177-79.398438 177-177c.042969-23.410156-4.585938-46.59375-13.621094-68.191406-1.515625-3.527344-5.589844-5.179688-9.132812-3.699219-3.542969 1.484375-5.234375 5.542969-3.785156 9.101563 8.320312 19.886718 12.582031 41.234374 12.539062 62.789062 0 89.878906-73.121094 163-163 163s-163-73.121094-163-163 73.121094-163 163-163c18.265625-.023438 36.40625 3.035156 53.65625 9.039062 2.363281.839844 5 .347657 6.902344-1.285156 1.902344-1.636718 2.785156-4.167968 2.3125-6.632812s-2.230469-4.488282-4.605469-5.300782c-18.730469-6.523437-38.429687-9.8437495-58.265625-9.820312-97.601562 0-177 79.398438-177 177zm0 0"/><path d="m233.460938 101.128906c0-3.863281-3.136719-7-7-7h-98.921876c-3.863281 0-7 3.136719-7 7 0 3.867188 3.136719 7 7 7h28.300782c16.871094.023438 31.394531 11.910156 34.753906 28.441406h-63.054688c-3.863281 0-7 3.132813-7 7 0 3.867188 3.136719 7 7 7h63.0625c-3.347656 16.542969-17.882812 28.441407-34.761718 28.449219h-28.300782c-2.867187 0-5.445312 1.75-6.507812 4.414063-1.058594 2.664062-.386719 5.707031 1.699219 7.675781l70.75 66.847656c2.808593 2.65625 7.238281 2.53125 9.894531-.277343 2.65625-2.8125 2.53125-7.242188-.277344-9.898438l-57.957031-54.761719h10.699219c24.605468-.003906 45.46875-18.09375 48.957031-42.449219h21.664063c3.863281 0 7-3.132812 7-7 0-3.867187-3.136719-7-7-7h-21.675782c-1.550781-10.828124-6.660156-20.832031-14.515625-28.441406h36.191407c3.863281 0 7-3.132812 7-7zm0 0"/><path d="m246.390625 45.519531c-2.734375-2.730469-7.167969-2.730469-9.902344 0-2.730469 2.734375-2.730469 7.167969 0 9.902344l32.582031 32.578125c2.691407 2.691406 7.035157 2.738281 9.785157.109375l57.417969-54.847656c1.835937-1.722657 2.605468-4.292969 2.019531-6.742188-.589844-2.445312-2.445313-4.386719-4.863281-5.085937-2.414063-.699219-5.019532-.046875-6.824219 1.707031l-52.472657 50.121094zm0 0"/></g></svg>