<?xml version="1.0" standalone="no"?>
<!DOCTYPE svg PUBLIC "-//W3C//DTD SVG 20010904//EN"
 "http://www.w3.org/TR/2001/REC-SVG-20010904/DTD/svg10.dtd">
<svg version="1.0" xmlns="http://www.w3.org/2000/svg"
 width="256.000000pt" height="256.000000pt" viewBox="0 0 256.000000 256.000000"
 preserveAspectRatio="xMidYMid meet">
<metadata>
Created by potrace 1.15, written by Peter Selinger 2001-2017
</metadata>
<g transform="translate(0.000000,256.000000) scale(0.100000,-0.100000)"
fill="#000000" stroke="none">
<path d="M1035 2516 c-55 -25 -93 -82 -96 -144 -1 -24 -3 -23 -9 8 l-7 35 -2
-36 c-1 -24 -9 -43 -26 -59 l-26 -24 -57 57 c-44 44 -54 59 -44 69 21 21 14
26 -38 26 -52 0 -59 -5 -38 -26 10 -10 0 -25 -45 -69 l-57 -58 -60 60 c-54 54
-58 60 -44 76 14 15 11 17 -35 17 -53 0 -60 -5 -39 -26 10 -10 0 -25 -45 -69
l-57 -58 -63 63 -63 63 -25 -28 c-13 -15 -17 -22 -8 -16 13 10 25 2 74 -47
l59 -60 -59 -60 -59 -60 -23 22 c-22 21 -23 21 -23 2 0 -11 5 -25 12 -32 9 -9
9 -15 0 -24 -7 -7 -12 -21 -12 -32 0 -19 1 -19 23 2 l23 22 59 -60 59 -60 -59
-60 -59 -60 -23 22 -23 21 0 -24 c0 -14 5 -30 11 -36 8 -8 8 -13 0 -17 -13 -8
-15 -46 -2 -46 5 0 14 7 21 16 12 13 21 8 72 -43 l58 -57 -57 -58 -57 -58 -23
22 -23 21 0 -24 c0 -14 5 -30 11 -36 8 -8 8 -13 0 -17 -6 -4 -11 -19 -11 -33
l0 -26 23 21 23 22 57 -58 57 -58 -58 -57 c-51 -51 -60 -56 -72 -43 -7 9 -16
16 -21 16 -13 0 -11 -34 2 -47 8 -8 8 -13 0 -17 -6 -4 -11 -19 -11 -33 l0 -26
23 21 23 22 57 -58 57 -58 -58 -57 c-51 -51 -60 -56 -72 -43 -7 9 -16 16 -21
16 -13 0 -11 -34 2 -47 8 -8 8 -13 0 -17 -6 -4 -11 -19 -11 -33 l0 -26 23 21
23 22 59 -60 59 -60 -59 -60 -59 -60 -23 22 c-22 21 -23 21 -23 2 0 -11 5 -25
12 -32 9 -9 9 -15 0 -24 -7 -7 -12 -21 -12 -32 0 -19 1 -19 23 2 l23 22 59
-60 59 -60 -59 -60 -59 -60 -23 22 -23 21 0 -24 c0 -14 5 -30 11 -36 8 -8 8
-13 0 -17 -13 -8 -15 -46 -2 -46 5 0 14 7 21 16 12 13 21 8 72 -43 l58 -57
-57 -58 c-54 -54 -58 -57 -75 -41 -10 9 -21 13 -25 10 -3 -4 15 -28 41 -53 25
-26 49 -44 53 -40 4 3 -1 14 -10 23 -16 16 -14 21 40 75 l57 58 58 -57 58 -57
-22 -23 -21 -23 24 0 c14 0 30 5 35 10 8 8 15 6 23 -4 6 -8 21 -12 32 -9 l20
6 -20 21 -21 22 60 59 60 60 57 -57 57 -57 -23 -25 c-21 -22 -21 -24 -4 -28
10 -3 26 2 36 11 13 11 20 12 29 3 7 -7 21 -12 32 -12 19 0 19 1 -2 23 l-22
23 60 59 60 59 60 -59 60 -59 -21 -22 c-15 -16 -17 -23 -7 -27 7 -2 21 2 31
11 15 13 19 13 35 0 9 -8 25 -13 35 -10 17 4 17 6 -4 28 l-23 25 25 25 26 25
91 -31 c90 -32 91 -33 70 -50 -21 -17 -21 -17 -1 -22 11 -3 28 1 38 8 12 9 14
14 5 14 -7 0 -11 2 -8 5 2 3 81 -21 174 -54 111 -39 162 -61 149 -64 -19 -5
-19 -6 -1 -4 11 1 19 7 19 12 -2 16 18 35 30 28 6 -3 7 -1 3 6 -4 6 10 59 30
117 28 78 40 102 45 88 4 -11 28 -39 53 -63 l46 -45 -22 -23 -21 -23 24 0 c14
0 30 5 35 10 8 8 15 6 23 -4 6 -8 21 -12 32 -9 l20 6 -20 21 -21 22 60 59 60
59 60 -59 60 -59 -21 -22 c-15 -16 -17 -23 -7 -27 7 -2 21 2 31 11 15 14 19
14 35 0 9 -9 23 -13 30 -11 10 4 8 11 -7 27 l-21 22 60 59 60 59 58 -57 c32
-31 63 -57 70 -57 25 0 10 26 -45 82 l-57 58 54 55 c38 39 60 53 72 49 15 -5
18 1 18 37 0 33 -3 39 -13 31 -10 -9 -27 2 -72 48 l-59 60 54 55 c35 36 60 53
71 50 12 -4 16 3 17 36 2 34 -1 40 -16 35 -12 -4 -34 10 -72 49 l-54 55 54 55
c38 39 60 53 72 49 15 -4 18 1 18 36 0 35 -3 40 -18 36 -12 -4 -34 10 -72 49
l-54 55 59 60 c45 46 62 57 72 48 10 -8 13 -2 13 31 0 36 -3 42 -18 37 -12 -4
-34 11 -75 52 l-57 58 58 57 c41 41 63 56 75 51 14 -5 17 1 17 36 0 34 -3 40
-13 32 -10 -9 -27 2 -72 48 l-59 60 54 55 c38 39 60 53 72 49 15 -4 18 1 18
36 0 35 -3 40 -18 36 -12 -4 -34 10 -72 49 l-54 55 54 55 c30 30 61 54 70 52
11 -1 16 9 18 36 3 34 1 38 -15 33 -14 -4 -34 9 -73 49 l-54 55 57 58 c45 45
55 60 45 70 -10 10 -25 0 -70 -45 l-58 -58 -57 58 c-45 44 -55 59 -45 69 21
21 14 26 -38 26 -52 0 -59 -5 -38 -26 10 -10 0 -25 -45 -69 l-57 -58 -60 60
c-54 54 -58 60 -44 76 14 15 11 17 -35 17 -52 0 -60 -5 -39 -26 18 -18 -67
-102 -104 -102 -32 0 -123 88 -107 105 17 18 9 23 -36 23 -45 0 -53 -5 -36
-23 13 -13 -74 -105 -97 -105 -10 0 -51 33 -92 73 -114 111 -237 160 -315 123z
m133 -97 c13 -5 20 -13 17 -19 -3 -5 0 -7 8 -4 8 3 35 -13 61 -35 l47 -41 -43
0 c-34 1 -39 3 -25 11 9 5 23 7 30 3 6 -4 2 4 -11 17 l-23 24 -24 -27 c-36
-42 -72 -37 -123 15 -65 66 -19 95 86 56z m-661 -206 l-57 -58 -60 60 -60 59
57 58 58 58 60 -60 60 -60 -58 -57z m283 112 l55 -55 -58 -58 -57 -57 -57 57
-58 58 55 55 c30 30 57 55 60 55 3 0 30 -25 60 -55z m1410 0 l55 -55 -58 -58
-57 -57 -57 57 -58 58 55 55 c30 30 57 55 60 55 3 0 30 -25 60 -55z m-1835
-255 l-60 -60 -60 60 -59 60 59 60 60 60 60 -60 60 -60 -60 -60z m285 115 l55
-55 -58 -58 -57 -57 -57 57 -58 58 55 55 c30 30 57 55 60 55 3 0 30 -25 60
-55z m270 10 c24 -24 48 -41 54 -38 13 8 14 10 -70 -97 -32 -41 -85 -100 -117
-129 l-58 -55 -57 57 -57 57 57 57 58 58 50 -50 c27 -27 50 -55 50 -63 0 -12
106 114 124 148 4 8 -5 -1 -20 -20 -16 -19 -40 -48 -54 -63 l-25 -28 -50 51
-49 50 54 55 c30 30 57 55 60 55 3 0 26 -20 50 -45z m1140 -10 l54 -55 -29
-29 c-23 -25 -26 -33 -16 -45 11 -13 17 -10 41 17 l29 32 58 -57 58 -58 -58
-57 -57 -58 0 56 c0 42 -4 60 -17 70 -15 11 -16 11 -5 -1 9 -11 12 -178 12
-761 0 -411 -3 -750 -7 -752 -5 -3 -7 333 -5 745 l2 750 -57 72 c-31 39 -73
91 -92 115 -20 25 -31 42 -25 38 6 -4 19 2 29 13 10 11 21 20 24 20 4 0 31
-25 61 -55z m280 0 l55 -55 -58 -58 -57 -57 -57 57 -58 58 55 55 c30 30 57 55
60 55 3 0 30 -25 60 -55z m-417 -92 l107 -136 0 -703 0 -704 -550 0 -550 0 0
701 0 701 52 65 51 65 25 -34 c47 -62 129 -134 190 -166 48 -26 63 -39 72 -67
14 -44 69 -91 120 -105 50 -14 107 0 150 36 43 37 60 75 60 136 0 132 -141
210 -257 143 -23 -14 -50 -39 -58 -55 -9 -17 -19 -30 -23 -30 -30 0 -148 103
-194 168 -32 46 -32 45 16 100 l19 22 331 0 331 -1 108 -136z m-1413 -48 l54
-55 -59 -60 -59 -60 -58 57 -58 57 57 58 c32 32 60 58 63 58 3 0 30 -25 60
-55z m-140 -140 l54 -55 -59 -60 -59 -60 -58 57 -58 57 57 58 c32 32 60 58 63
58 3 0 30 -25 60 -55z m280 0 l54 -55 -59 -60 -59 -60 -58 57 -58 57 57 58
c32 32 60 58 63 58 3 0 30 -25 60 -55z m1690 0 l55 -55 -58 -58 -57 -57 -57
57 -58 58 55 55 c30 30 57 55 60 55 3 0 30 -25 60 -55z m-1830 -140 l54 -55
-59 -60 -59 -60 -58 57 -58 57 57 58 c32 32 60 58 63 58 3 0 30 -25 60 -55z
m279 2 c28 -26 51 -52 51 -57 0 -4 -26 -33 -57 -64 l-58 -55 -58 57 -57 56 57
58 c32 32 61 57 64 56 4 -2 30 -25 58 -51z m-426 -259 l-57 -58 -58 57 -58 57
57 58 57 58 58 -57 58 -57 -57 -58z m287 117 l54 -55 -59 -60 -59 -60 -58 57
-58 57 57 58 c32 32 60 58 63 58 3 0 30 -25 60 -55z m1693 -3 l57 -58 -60 -59
-60 -59 -60 59 -60 59 57 58 c32 32 60 58 63 58 3 0 31 -26 63 -58z m-1840
-254 l-57 -58 -58 57 -58 57 57 58 57 58 58 -57 58 -57 -57 -58z m261 141 c14
-17 26 -25 26 -18 0 7 2 10 5 7 3 -3 -9 -46 -27 -97 -20 -58 -34 -87 -40 -79
-4 7 -8 9 -8 3 0 -5 -25 15 -55 45 l-55 54 57 58 c32 32 60 58 64 58 4 0 19
-14 33 -31z m-401 -281 l-57 -58 -58 57 -58 57 57 58 57 58 58 -57 58 -57 -57
-58z m284 -5 l-57 -58 -60 60 -60 59 57 58 58 58 60 -60 60 -60 -58 -57z
m1696 119 l57 -58 -60 -59 -60 -59 -60 59 -60 59 57 58 c32 32 60 58 63 58 3
0 31 -26 63 -58z m-1836 -259 l-57 -58 -60 60 -60 59 57 58 58 58 60 -60 60
-60 -58 -57z m-140 -140 l-57 -58 -60 60 -60 59 57 58 58 58 60 -60 60 -60
-58 -57z m279 125 c3 4 4 0 1 -8 -3 -8 -17 -50 -32 -93 l-27 -77 -59 57 -59
57 57 58 58 59 27 -30 c14 -16 30 -26 34 -23z m1694 -13 l55 -55 -58 -58 -57
-57 -57 57 -58 58 55 55 c30 30 57 55 60 55 3 0 30 -25 60 -55z m-1551 -138
c28 -26 51 -53 50 -60 -1 -7 -26 -34 -56 -61 l-54 -50 -35 36 -36 35 33 92
c23 64 35 86 40 74 4 -10 30 -40 58 -66z m-220 -78 c0 -12 -1 -12 -6 0 -4 9
-22 -4 -59 -40 l-54 -53 -60 59 -60 59 57 59 58 58 63 -65 c34 -35 62 -70 61
-77z m-204 -179 l-60 -60 -60 60 -59 60 59 60 60 60 60 -60 60 -60 -60 -60z
m1975 115 l55 -55 -58 -58 -57 -57 -57 57 -58 58 55 55 c30 30 57 55 60 55 3
0 30 -25 60 -55z m-1845 -141 c-35 -98 -64 -174 -65 -167 0 6 -23 33 -50 60
l-51 48 60 59 c53 52 62 58 76 46 12 -10 15 -23 12 -44 l-6 -31 13 30 c22 50
29 78 18 71 -6 -3 -14 -1 -17 4 -8 12 23 52 35 45 3 -2 12 12 19 31 7 20 15
34 17 31 2 -2 -25 -84 -61 -183z m294 3 c28 -26 51 -52 51 -57 0 -4 -26 -33
-57 -64 l-58 -55 -58 57 -57 56 57 58 c32 32 61 57 64 56 4 -2 30 -25 58 -51z
m-419 -142 l54 -55 -59 -60 -59 -60 -58 57 -58 57 57 58 c32 32 60 58 63 58 3
0 30 -25 60 -55z m1973 -3 l57 -58 -58 -57 -58 -57 -59 60 -59 60 54 55 c30
30 57 55 60 55 3 0 31 -26 63 -58z m-1468 -26 c9 -3 36 -6 60 -6 56 0 63 -19
21 -59 l-32 -31 -90 30 -91 31 46 47 46 47 11 -26 c7 -14 19 -29 29 -33z
m1221 -5 c-4 -5 0 -11 6 -14 8 -3 -10 -28 -47 -66 l-59 -61 -57 56 c-32 32
-55 63 -52 70 3 9 33 14 101 17 54 1 101 4 105 5 5 1 6 -2 3 -7z m-833 -15 c3
-8 -19 -37 -52 -70 l-57 -56 -58 59 c-32 33 -55 64 -52 70 11 17 212 15 219
-3z m280 0 c3 -8 -19 -37 -52 -70 l-57 -56 -58 59 c-32 33 -55 64 -52 70 11
17 212 15 219 -3z m-1033 -91 l54 -55 -59 -60 -59 -60 -58 57 -58 57 57 58
c32 32 60 58 63 58 3 0 30 -25 60 -55z m842 -2 l58 -57 -27 -28 c-15 -15 -34
-28 -42 -28 -14 0 -14 -2 -1 -11 19 -14 14 -12 -97 26 l-81 29 61 63 c33 35
63 63 66 63 3 0 31 -26 63 -57z m255 35 c13 -12 23 -29 23 -37 0 -14 2 -14 11
-1 14 19 13 15 -26 -97 l-28 -82 -66 64 -66 64 55 56 c30 30 59 55 64 55 5 0
20 -10 33 -22z m313 -33 l54 -55 -59 -60 -59 -60 -53 52 c-29 29 -53 57 -53
62 0 11 100 116 110 116 3 0 30 -25 60 -55z m283 -3 l57 -58 -60 -59 -60 -59
-60 59 -60 59 57 58 c32 32 60 58 63 58 3 0 31 -26 63 -58z m-1438 -26 l81
-28 -61 -59 -60 -58 -57 56 -58 57 22 23 c12 13 29 23 37 23 14 0 14 2 1 11
-19 14 -15 13 95 -25z"/>
<path d="M1308 1569 c-24 -13 -23 -56 1 -69 11 -5 46 -10 79 -10 46 0 63 -4
77 -20 18 -20 17 -20 -59 -20 -89 0 -116 -11 -116 -45 0 -34 27 -45 117 -45
l78 -1 -24 -19 c-17 -15 -38 -20 -81 -20 -76 0 -90 -6 -90 -39 0 -20 26 -50
114 -133 111 -105 139 -121 164 -96 24 24 11 48 -64 116 l-76 69 28 7 c41 11
89 50 104 85 9 23 19 31 37 31 38 0 63 18 63 45 0 27 -25 45 -63 45 -16 0 -26
7 -30 20 -4 17 0 20 25 20 42 0 68 17 68 45 0 14 -8 29 -19 35 -25 13 -310 13
-333 -1z"/>
<path d="M1058 919 c-24 -13 -23 -56 1 -69 26 -13 815 -14 840 0 29 15 33 38
11 60 -19 19 -35 20 -427 20 -259 0 -414 -4 -425 -11z"/>
<path d="M1058 729 c-24 -13 -23 -56 1 -69 26 -13 815 -14 840 0 29 15 33 38
11 60 -19 19 -35 20 -427 20 -259 0 -414 -4 -425 -11z"/>
</g>
</svg>
